<mxfile host="app.diagrams.net" modified="2024-06-04T13:01:35.399Z" agent="Mozilla/5.0 (Windows NT 10.0; Win64; x64) AppleWebKit/537.36 (KHTML, like Gecko) Chrome/125.0.0.0 Safari/537.36" etag="iBdJ1oHA724xMl1Tb_QF" version="24.4.13" type="device">
  <diagram id="AR-0rgAoi4BBiJMxZmqS" name="Page-1">
    <mxGraphModel dx="3241" dy="2340" grid="1" gridSize="10" guides="1" tooltips="1" connect="1" arrows="1" fold="1" page="1" pageScale="1" pageWidth="850" pageHeight="1100" math="0" shadow="0">
      <root>
        <mxCell id="0" />
        <mxCell id="1" parent="0" />
        <mxCell id="43" value="" style="rounded=0;whiteSpace=wrap;html=1;" parent="1" vertex="1">
          <mxGeometry x="-240" y="-210" width="1600" height="660" as="geometry" />
        </mxCell>
        <mxCell id="44" value="&lt;div&gt;&lt;br&gt;&lt;/div&gt;" style="rounded=1;whiteSpace=wrap;html=1;dashed=1;align=left;" parent="1" vertex="1">
          <mxGeometry x="160" y="-160" width="840" height="450" as="geometry" />
        </mxCell>
        <mxCell id="nSltYGF0QAuFJVYr3Hyu-59" value="" style="rounded=1;whiteSpace=wrap;html=1;dashed=1;align=left;" parent="1" vertex="1">
          <mxGeometry x="-230" y="-180" width="380" height="590" as="geometry" />
        </mxCell>
        <mxCell id="45" value="&lt;span style=&quot;white-space: pre;&quot;&gt;&#x9;&lt;/span&gt;" style="rounded=1;whiteSpace=wrap;html=1;dashed=1;align=left;" parent="1" vertex="1">
          <mxGeometry x="-212.5" y="160" width="165" height="225" as="geometry" />
        </mxCell>
        <mxCell id="46" value="FU1.1.1&lt;span style=&quot;background-color: initial;&quot;&gt;&amp;nbsp;- Web Appplication Firewall Interface&lt;/span&gt;" style="rounded=0;whiteSpace=wrap;html=1;" parent="1" vertex="1">
          <mxGeometry x="-190" y="200" width="120" height="60" as="geometry" />
        </mxCell>
        <mxCell id="47" value="" style="rounded=1;whiteSpace=wrap;html=1;dashed=1;align=left;" parent="1" vertex="1">
          <mxGeometry x="220" y="-90" width="740" height="300" as="geometry" />
        </mxCell>
        <mxCell id="qpSDe24Ej5cpOyjKBdZl-84" style="edgeStyle=orthogonalEdgeStyle;rounded=0;orthogonalLoop=1;jettySize=auto;html=1;entryX=0.5;entryY=1;entryDx=0;entryDy=0;" parent="1" source="50" target="51" edge="1">
          <mxGeometry relative="1" as="geometry" />
        </mxCell>
        <mxCell id="qpSDe24Ej5cpOyjKBdZl-85" style="edgeStyle=orthogonalEdgeStyle;rounded=0;orthogonalLoop=1;jettySize=auto;html=1;entryX=0;entryY=0.5;entryDx=0;entryDy=0;" parent="1" source="50" target="56" edge="1">
          <mxGeometry relative="1" as="geometry" />
        </mxCell>
        <mxCell id="50" value="FU2.1.6 - Traffic Analyser" style="rounded=0;whiteSpace=wrap;html=1;" parent="1" vertex="1">
          <mxGeometry x="650" y="65" width="120" height="60" as="geometry" />
        </mxCell>
        <mxCell id="51" value="FU2.1.5 - Anomaly Logger" style="rounded=0;whiteSpace=wrap;html=1;" parent="1" vertex="1">
          <mxGeometry x="650" y="-55" width="120" height="60" as="geometry" />
        </mxCell>
        <mxCell id="56" value="FU2.1.7 - Traffic Proxy" style="rounded=0;whiteSpace=wrap;html=1;" parent="1" vertex="1">
          <mxGeometry x="810" y="30" width="120" height="60" as="geometry" />
        </mxCell>
        <mxCell id="53" value="" style="endArrow=classic;html=1;exitX=1;exitY=0.5;exitDx=0;exitDy=0;" parent="1" source="45" edge="1">
          <mxGeometry width="50" height="50" relative="1" as="geometry">
            <mxPoint x="230" y="220" as="sourcePoint" />
            <mxPoint x="160" y="220" as="targetPoint" />
            <Array as="points">
              <mxPoint y="275" />
              <mxPoint y="220" />
            </Array>
          </mxGeometry>
        </mxCell>
        <mxCell id="4FYHJpywXp8vysD7PwN4-68" style="edgeStyle=orthogonalEdgeStyle;rounded=0;orthogonalLoop=1;jettySize=auto;html=1;exitX=0.75;exitY=1;exitDx=0;exitDy=0;" parent="1" source="4FYHJpywXp8vysD7PwN4-67" edge="1">
          <mxGeometry relative="1" as="geometry">
            <mxPoint x="57.84210526315792" y="220" as="targetPoint" />
          </mxGeometry>
        </mxCell>
        <mxCell id="4FYHJpywXp8vysD7PwN4-67" value="" style="rounded=1;whiteSpace=wrap;html=1;dashed=1;align=left;" parent="1" vertex="1">
          <mxGeometry x="-197.5" y="-140" width="317.5" height="260" as="geometry" />
        </mxCell>
        <mxCell id="nSltYGF0QAuFJVYr3Hyu-60" value="FU1.2.1 - User Simulator" style="rounded=0;whiteSpace=wrap;html=1;" parent="1" vertex="1">
          <mxGeometry x="-20" y="-100" width="120" height="60" as="geometry" />
        </mxCell>
        <mxCell id="nSltYGF0QAuFJVYr3Hyu-67" value="FU1.1.2 -&lt;br&gt;Browser" style="rounded=0;whiteSpace=wrap;html=1;" parent="1" vertex="1">
          <mxGeometry x="-190" y="285" width="120" height="60" as="geometry" />
        </mxCell>
        <mxCell id="nSltYGF0QAuFJVYr3Hyu-68" value="FU1.1 - User Interface" style="text;html=1;align=center;verticalAlign=middle;whiteSpace=wrap;rounded=0;" parent="1" vertex="1">
          <mxGeometry x="-212.5" y="135" width="130" height="30" as="geometry" />
        </mxCell>
        <mxCell id="nSltYGF0QAuFJVYr3Hyu-69" value="FU1.2 - Traffic Simulator" style="text;html=1;align=center;verticalAlign=middle;whiteSpace=wrap;rounded=0;" parent="1" vertex="1">
          <mxGeometry x="-197.5" y="-170" width="140" height="30" as="geometry" />
        </mxCell>
        <mxCell id="qpSDe24Ej5cpOyjKBdZl-90" style="edgeStyle=orthogonalEdgeStyle;rounded=0;orthogonalLoop=1;jettySize=auto;html=1;entryX=0;entryY=0.5;entryDx=0;entryDy=0;" parent="1" source="nSltYGF0QAuFJVYr3Hyu-70" target="nSltYGF0QAuFJVYr3Hyu-60" edge="1">
          <mxGeometry relative="1" as="geometry" />
        </mxCell>
        <mxCell id="nSltYGF0QAuFJVYr3Hyu-70" value="FU1.2.2 - Action Generator" style="rounded=0;whiteSpace=wrap;html=1;" parent="1" vertex="1">
          <mxGeometry x="-180" y="-100" width="120" height="60" as="geometry" />
        </mxCell>
        <mxCell id="qpSDe24Ej5cpOyjKBdZl-92" style="edgeStyle=orthogonalEdgeStyle;rounded=0;orthogonalLoop=1;jettySize=auto;html=1;entryX=0;entryY=0.5;entryDx=0;entryDy=0;" parent="1" source="nSltYGF0QAuFJVYr3Hyu-71" target="nSltYGF0QAuFJVYr3Hyu-60" edge="1">
          <mxGeometry relative="1" as="geometry" />
        </mxCell>
        <mxCell id="nSltYGF0QAuFJVYr3Hyu-71" value="FU1.2.3 - Exploit Injector" style="rounded=0;whiteSpace=wrap;html=1;" parent="1" vertex="1">
          <mxGeometry x="-180" y="-10" width="120" height="60" as="geometry" />
        </mxCell>
        <mxCell id="qpSDe24Ej5cpOyjKBdZl-59" value="FU2 - Embedded Platform" style="text;html=1;align=center;verticalAlign=middle;whiteSpace=wrap;rounded=0;" parent="1" vertex="1">
          <mxGeometry x="200" y="-190" width="150" height="30" as="geometry" />
        </mxCell>
        <mxCell id="qpSDe24Ej5cpOyjKBdZl-60" value="FU2.1 - Web Application Firewall" style="text;html=1;align=center;verticalAlign=middle;whiteSpace=wrap;rounded=0;" parent="1" vertex="1">
          <mxGeometry x="270" y="-115" width="190" height="30" as="geometry" />
        </mxCell>
        <mxCell id="qpSDe24Ej5cpOyjKBdZl-78" style="edgeStyle=orthogonalEdgeStyle;rounded=0;orthogonalLoop=1;jettySize=auto;html=1;entryX=0;entryY=0.5;entryDx=0;entryDy=0;" parent="1" source="qpSDe24Ej5cpOyjKBdZl-68" target="qpSDe24Ej5cpOyjKBdZl-77" edge="1">
          <mxGeometry relative="1" as="geometry" />
        </mxCell>
        <mxCell id="qpSDe24Ej5cpOyjKBdZl-79" style="edgeStyle=orthogonalEdgeStyle;rounded=0;orthogonalLoop=1;jettySize=auto;html=1;entryX=0;entryY=0.5;entryDx=0;entryDy=0;" parent="1" source="qpSDe24Ej5cpOyjKBdZl-68" target="qpSDe24Ej5cpOyjKBdZl-69" edge="1">
          <mxGeometry relative="1" as="geometry" />
        </mxCell>
        <mxCell id="qpSDe24Ej5cpOyjKBdZl-80" style="edgeStyle=orthogonalEdgeStyle;rounded=0;orthogonalLoop=1;jettySize=auto;html=1;entryX=0;entryY=0.5;entryDx=0;entryDy=0;" parent="1" source="qpSDe24Ej5cpOyjKBdZl-68" target="qpSDe24Ej5cpOyjKBdZl-72" edge="1">
          <mxGeometry relative="1" as="geometry" />
        </mxCell>
        <mxCell id="qpSDe24Ej5cpOyjKBdZl-68" value="FU2.1.1 - Traffic Interceptor" style="rounded=0;whiteSpace=wrap;html=1;" parent="1" vertex="1">
          <mxGeometry x="250" y="25" width="120" height="60" as="geometry" />
        </mxCell>
        <mxCell id="qpSDe24Ej5cpOyjKBdZl-82" style="edgeStyle=orthogonalEdgeStyle;rounded=0;orthogonalLoop=1;jettySize=auto;html=1;entryX=0;entryY=0.5;entryDx=0;entryDy=0;" parent="1" source="qpSDe24Ej5cpOyjKBdZl-69" target="50" edge="1">
          <mxGeometry relative="1" as="geometry" />
        </mxCell>
        <mxCell id="qpSDe24Ej5cpOyjKBdZl-69" value="FU2.1.3 - Basic Allow/Deny Logic" style="rounded=0;whiteSpace=wrap;html=1;" parent="1" vertex="1">
          <mxGeometry x="440" y="25" width="120" height="60" as="geometry" />
        </mxCell>
        <mxCell id="qpSDe24Ej5cpOyjKBdZl-71" style="edgeStyle=orthogonalEdgeStyle;rounded=0;orthogonalLoop=1;jettySize=auto;html=1;exitX=0.5;exitY=1;exitDx=0;exitDy=0;" parent="1" edge="1">
          <mxGeometry relative="1" as="geometry">
            <mxPoint x="335" y="130" as="sourcePoint" />
            <mxPoint x="335" y="130" as="targetPoint" />
          </mxGeometry>
        </mxCell>
        <mxCell id="qpSDe24Ej5cpOyjKBdZl-83" style="edgeStyle=orthogonalEdgeStyle;rounded=0;orthogonalLoop=1;jettySize=auto;html=1;entryX=0;entryY=0.5;entryDx=0;entryDy=0;" parent="1" source="qpSDe24Ej5cpOyjKBdZl-72" target="50" edge="1">
          <mxGeometry relative="1" as="geometry" />
        </mxCell>
        <mxCell id="qpSDe24Ej5cpOyjKBdZl-72" value="FU2.1.4 - Baseline Trainer" style="rounded=0;whiteSpace=wrap;html=1;" parent="1" vertex="1">
          <mxGeometry x="440" y="105" width="120" height="60" as="geometry" />
        </mxCell>
        <mxCell id="qpSDe24Ej5cpOyjKBdZl-81" style="edgeStyle=orthogonalEdgeStyle;rounded=0;orthogonalLoop=1;jettySize=auto;html=1;entryX=0;entryY=0.5;entryDx=0;entryDy=0;" parent="1" source="qpSDe24Ej5cpOyjKBdZl-77" target="50" edge="1">
          <mxGeometry relative="1" as="geometry" />
        </mxCell>
        <mxCell id="qpSDe24Ej5cpOyjKBdZl-77" value="FU2.1.2 - JWT Extractor" style="rounded=0;whiteSpace=wrap;html=1;" parent="1" vertex="1">
          <mxGeometry x="440" y="-55" width="120" height="60" as="geometry" />
        </mxCell>
        <mxCell id="4FYHJpywXp8vysD7PwN4-56" value="" style="rounded=1;whiteSpace=wrap;html=1;dashed=1;align=left;" parent="1" vertex="1">
          <mxGeometry x="1030" y="-160" width="300" height="450" as="geometry" />
        </mxCell>
        <mxCell id="4FYHJpywXp8vysD7PwN4-59" style="edgeStyle=orthogonalEdgeStyle;rounded=0;orthogonalLoop=1;jettySize=auto;html=1;entryX=0;entryY=0.5;entryDx=0;entryDy=0;" parent="1" target="4FYHJpywXp8vysD7PwN4-62" edge="1">
          <mxGeometry relative="1" as="geometry">
            <mxPoint x="960.0000000000005" y="60" as="sourcePoint" />
            <mxPoint x="1179.9999999999995" y="-10.000000000000227" as="targetPoint" />
            <Array as="points">
              <mxPoint x="1100" y="60" />
              <mxPoint x="1100" y="-60" />
            </Array>
          </mxGeometry>
        </mxCell>
        <mxCell id="4FYHJpywXp8vysD7PwN4-60" style="edgeStyle=orthogonalEdgeStyle;rounded=0;orthogonalLoop=1;jettySize=auto;html=1;entryX=0;entryY=0.5;entryDx=0;entryDy=0;" parent="1" target="4FYHJpywXp8vysD7PwN4-63" edge="1">
          <mxGeometry relative="1" as="geometry">
            <mxPoint x="1179.9999999999995" y="245" as="targetPoint" />
            <mxPoint x="960" y="60" as="sourcePoint" />
          </mxGeometry>
        </mxCell>
        <mxCell id="4FYHJpywXp8vysD7PwN4-61" style="edgeStyle=orthogonalEdgeStyle;rounded=0;orthogonalLoop=1;jettySize=auto;html=1;exitX=1;exitY=0.5;exitDx=0;exitDy=0;" parent="1" source="56" target="4FYHJpywXp8vysD7PwN4-64" edge="1">
          <mxGeometry relative="1" as="geometry">
            <mxPoint x="960" y="60" as="sourcePoint" />
            <Array as="points">
              <mxPoint x="930" y="60" />
              <mxPoint x="1100" y="60" />
              <mxPoint x="1100" y="180" />
            </Array>
          </mxGeometry>
        </mxCell>
        <mxCell id="4FYHJpywXp8vysD7PwN4-62" value="FU3.1 - Web Application 1" style="rounded=0;whiteSpace=wrap;html=1;" parent="1" vertex="1">
          <mxGeometry x="1180" y="-90" width="120" height="60" as="geometry" />
        </mxCell>
        <mxCell id="4FYHJpywXp8vysD7PwN4-63" value="FU3.2 - Web Application&amp;nbsp;2" style="rounded=0;whiteSpace=wrap;html=1;" parent="1" vertex="1">
          <mxGeometry x="1180" y="30" width="120" height="60" as="geometry" />
        </mxCell>
        <mxCell id="4FYHJpywXp8vysD7PwN4-64" value="FU3.3 - Web Application&amp;nbsp;3" style="rounded=0;whiteSpace=wrap;html=1;" parent="1" vertex="1">
          <mxGeometry x="1180" y="150" width="120" height="60" as="geometry" />
        </mxCell>
        <mxCell id="4FYHJpywXp8vysD7PwN4-65" value="FU3 - Web Server (PC)" style="text;html=1;align=center;verticalAlign=middle;whiteSpace=wrap;rounded=0;" parent="1" vertex="1">
          <mxGeometry x="1050" y="-190" width="150" height="30" as="geometry" />
        </mxCell>
        <mxCell id="4FYHJpywXp8vysD7PwN4-69" value="FU1 - Client PC" style="text;html=1;align=center;verticalAlign=middle;whiteSpace=wrap;rounded=0;" parent="1" vertex="1">
          <mxGeometry x="-217.5" y="-210" width="140" height="30" as="geometry" />
        </mxCell>
      </root>
    </mxGraphModel>
  </diagram>
</mxfile>
